<svg xmlns="http://www.w3.org/2000/svg" width="32" height="32" viewBox="0 0 24 24"><!-- Icon from
	Solar by 480 Design - https://creativecommons.org/licenses/by/4.0/ -->
	<path fill="currentColor" fill-rule="evenodd"
		d="M22 12c0 5.523-4.477 10-10 10S2 17.523 2 12S6.477 2 12 2s10 4.477 10 10m-7-3a3 3 0 1 1-6 0a3 3 0 0 1 6 0m-3 11.5a8.46 8.46 0 0 0 4.807-1.489c.604-.415.862-1.205.51-1.848C16.59 15.83 15.09 15 12 15s-4.59.83-5.318 2.163c-.351.643-.093 1.433.511 1.848A8.46 8.46 0 0 0 12 20.5"
		clip-rule="evenodd" />
</svg>