<svg xmlns="http://www.w3.org/2000/svg" width="374" height="234" fill="none"><path fill="#fff" d="M373.033 35.65v162.846c0 19.566-15.92 35.487-35.492 35.487h-64.137c-10.764 0-20.818-4.799-27.589-13.169l-27.28-33.742a11.028 11.028 0 0 1-.081-13.846l9.859-12.481a11.028 11.028 0 0 1 8.705-4.22c3.418 0 6.555 1.523 8.673 4.182l26.299 33.06a6.632 6.632 0 0 0 5.206 2.508h49.24c4.897 0 8.884-3.987 8.884-8.884V46.755c0-4.902-3.987-8.884-8.884-8.884h-49.283c-2.037 0-3.933.91-5.206 2.503L128.218 220.619c-6.777 8.494-16.891 13.364-27.752 13.364H36.454c-19.567 0-35.487-15.921-35.487-35.487V35.65C.967 16.08 16.887.158 36.454.158h64.478c10.937 0 21.094 4.93 27.871 13.527l26.164 33.395a11.055 11.055 0 0 1-.017 13.749l-9.929 12.545a11.028 11.028 0 0 1-8.694 4.21 11.001 11.001 0 0 1-8.673-4.183l-26.229-33.027a6.61 6.61 0 0 0-5.2-2.503H47.558c-4.897 0-8.883 3.982-8.883 8.884v140.636c0 4.897 3.986 8.884 8.883 8.884h48.645a6.624 6.624 0 0 0 5.2-2.502l143.8-180.256C251.974 5.028 262.088.158 272.949.158h64.592c19.572 0 35.492 15.92 35.492 35.492z"/></svg>