<svg width="144" height="72" viewBox="0 0 144 72" class="svg" fill="none"
  xmlns="http://www.w3.org/2000/svg">
  <path
    d="M12.6755 32.0612C12.9331 32.0378 13.1282 32.0222 13.2453 32.0066C13.3701 31.9988 13.5419 31.991 13.7682 31.991C14.2521 31.991 15.0014 32.03 16.0317 32.1158C17.062 32.2017 17.9283 32.2407 18.6464 32.2407C20.6757 32.2407 22.3382 31.8583 23.6183 31.0934C24.8983 30.3285 25.8115 29.3997 26.35 28.2991C26.8886 27.1986 27.1618 26.1371 27.1618 25.099C27.1618 23.2648 26.4593 21.6492 25.0622 20.2521C24.3441 19.534 23.3919 18.7925 22.1977 18.012C21.0035 17.2393 19.8874 16.5056 18.8493 15.811C17.8112 15.1163 16.9917 14.4138 16.3907 13.688C15.7897 12.9621 15.4931 12.166 15.4931 11.2996C15.4931 10.4645 15.7195 9.71517 16.1644 9.05173C16.6093 8.3883 17.2337 7.86536 18.0376 7.48291C18.8415 7.10045 19.7469 6.91313 20.7616 6.91313C21.9714 6.91313 23.3919 7.27217 25.0232 7.99024L26.1315 12.0645H26.3578L26.2486 6.03896C26.0847 6.06237 25.9286 6.08579 25.7803 6.1014C25.632 6.11701 25.4368 6.13262 25.1871 6.14043C24.9373 6.14823 24.6797 6.15604 24.391 6.16384C24.0631 6.16384 23.47 6.12482 22.6114 6.04676C21.7528 5.96871 20.9411 5.92969 20.1762 5.92969C18.4981 5.92969 17.0776 6.26531 15.9302 6.92874C14.7751 7.59218 13.9243 8.42732 13.3779 9.41857C12.8238 10.4176 12.5506 11.4245 12.5506 12.4313C12.5506 13.3445 12.7301 14.1797 13.0814 14.9212C13.4326 15.6705 13.9711 16.412 14.6814 17.1534C15.5165 17.9886 16.859 19.0267 18.7088 20.2755C20.5586 21.5243 21.8777 22.5468 22.666 23.3429C23.4543 24.139 23.8446 25.1225 23.8446 26.2854C23.8446 26.8474 23.7197 27.425 23.4778 28.0182C23.228 28.6113 22.8768 29.1421 22.4085 29.6104C21.948 30.0787 21.347 30.469 20.6133 30.7734C19.8796 31.0778 19.0679 31.2339 18.1937 31.2339C17.5381 31.2495 16.7576 31.1558 15.86 30.9685C14.9624 30.7812 14.1741 30.5314 13.5106 30.227L12.1682 25.8952H11.9184L12.1994 32.1002C12.2618 32.1002 12.4179 32.0846 12.6755 32.0612Z"
    fill="#FFA200"></path>
  <path
    d="M12.1838 25.8952L13.5262 30.227C14.1975 30.5314 14.978 30.7812 15.8756 30.9685C16.7732 31.1558 17.5537 31.2417 18.2093 31.2339C19.0913 31.2339 19.8952 31.0778 20.6289 30.7734C21.3626 30.469 21.9636 30.0787 22.4241 29.6104C22.8846 29.1421 23.2436 28.6113 23.4934 28.0182C23.7431 27.425 23.8602 26.8474 23.8602 26.2854C23.8602 25.1225 23.4699 24.139 22.6816 23.3429C21.8933 22.5468 20.5742 21.5243 18.7244 20.2755C16.8746 19.0267 15.5321 17.9886 14.697 17.1534C13.9789 16.412 13.4482 15.6705 13.097 14.9212C12.7457 14.1719 12.5662 13.3445 12.5662 12.4313C12.5662 11.4245 12.8394 10.4176 13.3935 9.41857C13.9477 8.41952 14.7985 7.59218 15.9458 6.92874C17.0932 6.26531 18.5137 5.92969 20.1918 5.92969C20.9567 5.92969 21.7684 5.96871 22.627 6.04676C23.4856 6.12482 24.0787 6.16384 24.4066 6.16384C24.6875 6.15604 24.9529 6.14043 25.2027 6.14043C25.4524 6.13262 25.6476 6.12482 25.7959 6.1014C25.9442 6.08579 26.1003 6.06237 26.2642 6.03896L26.3734 12.0645H26.1471L25.0388 7.99024C23.4075 7.27217 21.987 6.91313 20.7772 6.91313C19.7703 6.91313 18.8571 7.10045 18.0532 7.48291C17.2493 7.86536 16.6249 8.3883 16.18 9.05173C15.7351 9.71517 15.5087 10.4645 15.5087 11.2996C15.5087 12.166 15.8053 12.9621 16.4063 13.688C17.0073 14.4138 17.8268 15.1163 18.8649 15.811C19.903 16.5056 21.0191 17.2393 22.2133 18.012C23.4075 18.7847 24.3597 19.534 25.0778 20.2521C26.4749 21.6492 27.1774 23.2648 27.1774 25.099C27.1774 26.1293 26.9042 27.1986 26.3656 28.2991C25.8271 29.3997 24.9139 30.3285 23.6339 31.0934C22.3538 31.8583 20.6991 32.2407 18.662 32.2407C17.9439 32.2407 17.0698 32.2017 16.0473 32.1158C15.017 32.03 14.2677 31.991 13.7838 31.991C13.5575 31.991 13.3857 31.9988 13.2609 32.0066C13.136 32.0222 12.9487 32.0378 12.6911 32.0612C12.4335 32.0846 12.2774 32.1002 12.2306 32.1002L11.9496 25.8952H12.1838ZM20.8006 6.30433H20.2386C18.943 6.30433 17.7566 6.5619 16.6639 7.07704C15.5712 7.59218 14.7048 8.32586 14.0726 9.27808C13.4404 10.2303 13.1204 11.3074 13.1204 12.5016C13.1204 13.9924 13.776 15.3895 15.0794 16.6929C15.657 17.2471 16.1956 17.7076 16.6951 18.0822C17.1946 18.4569 17.9517 18.9876 18.9586 19.6745C19.9654 20.3613 20.7772 20.9233 21.3782 21.3682C21.987 21.8053 22.4787 22.2268 22.869 22.6248C23.9226 23.6785 24.4534 24.8649 24.4534 26.1683C24.4534 27.0581 24.2114 27.9245 23.7197 28.7518C23.2358 29.5792 22.5255 30.2582 21.6045 30.7812C20.6835 31.3041 19.5986 31.5695 18.3498 31.5851V31.7802C19.7859 31.8271 21.0582 31.5773 22.1821 31.0231C23.306 30.469 24.1646 29.7431 24.7578 28.8377C25.351 27.9323 25.6476 26.9957 25.6476 26.0357C25.6476 25.2005 25.5149 24.4434 25.2417 23.7644C24.9685 23.0853 24.4768 22.3829 23.7587 21.6648C23.3451 21.2511 22.6036 20.6814 21.5421 19.9477C20.4728 19.214 19.3957 18.4725 18.303 17.731C17.2102 16.9817 16.4141 16.3729 15.9068 15.889C14.6736 14.6636 14.057 13.3211 14.057 11.8538C14.057 10.5581 14.6189 9.35613 15.7429 8.24C16.8668 7.12387 18.5527 6.53849 20.8084 6.47605V6.30433H20.8006Z"
    fill="#EA3223"></path>
  <path
    d="M50.546 25.6299H50.2806L48.4464 30.4378C48.0952 30.5471 47.4864 30.6564 46.6122 30.7734C45.7458 30.8905 44.7936 30.953 43.7555 30.953C41.6169 30.953 39.5408 30.6329 37.5349 30.0007C37.3475 28.026 37.2539 26.1294 37.2539 24.3108V16.732C37.2539 15.2881 37.3085 13.6022 37.41 11.6665C37.5193 9.73085 37.6441 8.20105 37.8002 7.0615L42.1711 6.4449V6.26538H28.8556V6.4449L33.2264 7.0615C33.3357 7.6703 33.4138 8.45081 33.484 9.40304C33.5465 10.3553 33.6011 11.4636 33.6479 12.728C33.6948 13.9924 33.7182 15.1086 33.7182 16.0842V20.5253C33.7182 21.1575 33.6869 22.2503 33.6323 23.7879C33.5699 25.3255 33.4918 26.8162 33.3982 28.2602C33.2967 29.7041 33.1796 30.711 33.0391 31.273L28.8244 31.8896V32.0691H49.7187L50.546 25.6299Z"
    fill="#FFA200"></path>
  <path
    d="M28.8555 6.4449V6.26538H42.1788V6.4449L37.808 7.0615C37.6518 8.20105 37.527 9.73866 37.4177 11.6665C37.3084 13.6022 37.2616 15.2881 37.2616 16.732V24.3108C37.2616 26.1294 37.3553 28.026 37.5426 30.0007C39.5485 30.6329 41.6247 30.953 43.7633 30.953C44.7935 30.953 45.7458 30.8905 46.6199 30.7734C47.4863 30.6564 48.1029 30.5471 48.4541 30.4378L50.2883 25.6299H50.5537L49.7186 32.0613H28.8165V31.8818L33.0312 31.2652C33.1717 30.7032 33.2888 29.6963 33.3903 28.2524C33.4917 26.8084 33.5698 25.3177 33.6244 23.7801C33.6869 22.2424 33.7103 21.1575 33.7103 20.5175V16.0764C33.7103 15.1008 33.6869 13.9846 33.64 12.7202C33.5932 11.4558 33.5386 10.3475 33.4761 9.39523C33.4137 8.44301 33.3278 7.6625 33.2185 7.0537L28.8555 6.4449ZM34.1942 6.92101V31.3744H35.4274V6.92101H34.1942Z"
    fill="#EA3223"></path>
  <path
    d="M100.764 7.88889C100.905 9.04404 101.006 10.2538 101.061 11.5339C101.123 12.8139 101.147 14.1096 101.147 15.4286V21.8054C101.147 25.4972 100.967 28.6349 100.6 31.234L96.3152 31.8896V32.0691H109.623V31.8896L105.268 31.234C105.112 30.0944 104.987 28.5724 104.877 26.6602C104.768 24.7479 104.721 23.0308 104.721 21.4854V15.6316C104.721 15.3115 104.729 14.7262 104.76 13.8598C104.784 12.9934 104.823 12.0568 104.87 11.0422C104.916 10.0275 104.987 8.9738 105.08 7.88108C106.033 7.63132 106.922 7.4596 107.742 7.35033C108.561 7.24106 109.475 7.19423 110.474 7.19423C111.637 7.19423 112.753 7.28789 113.822 7.47521L115.126 11.6353H115.336L114.93 5.922C113.705 6.03907 112.714 6.12493 111.933 6.17957C111.161 6.2342 110.31 6.25762 109.381 6.25762H94.0829C93.6459 6.25762 93.0995 6.21079 92.4282 6.12493C91.757 6.03907 91.2497 5.98444 90.8984 5.96102L90.5082 11.7446H90.758L92.0302 7.55327C93.279 7.34253 94.5356 7.23326 95.8157 7.23326C96.6274 7.25667 97.486 7.32692 98.3914 7.43619C99.2889 7.55327 100.085 7.70156 100.764 7.88889Z"
    fill="#FFA200"></path>
  <path
    d="M94.0829 6.26537H109.381C110.31 6.26537 111.16 6.24195 111.933 6.18732C112.706 6.13268 113.705 6.04683 114.93 5.92975L115.336 11.6431H115.125L113.822 7.48297C112.753 7.29564 111.637 7.20198 110.474 7.20198C109.475 7.20198 108.561 7.25662 107.742 7.35808C106.922 7.46736 106.033 7.63907 105.08 7.88883C104.987 8.98155 104.916 10.0352 104.87 11.0499C104.823 12.0646 104.784 13.009 104.76 13.8675C104.737 14.7339 104.721 15.3193 104.721 15.6393V21.4931C104.721 23.0308 104.776 24.7557 104.877 26.6679C104.987 28.5802 105.112 30.1022 105.268 31.2417L109.623 31.8974V32.0769H96.3152V31.8974L100.6 31.2417C100.967 28.6426 101.147 25.505 101.147 21.8132V15.4364C101.147 14.1173 101.115 12.8217 101.061 11.5416C100.998 10.2616 100.905 9.04399 100.764 7.89664C100.085 7.70931 99.2889 7.56102 98.3835 7.44394C97.4781 7.33467 96.6196 7.26442 95.8078 7.24101C94.5278 7.24101 93.2634 7.35028 92.0223 7.56102L90.7501 11.7524H90.5003L90.8906 5.96877C91.2418 5.99219 91.757 6.04683 92.4204 6.13268C93.0838 6.21854 93.6536 6.26537 94.0829 6.26537ZM101.701 6.921V31.3744H102.879V6.921H101.701Z"
    fill="#EA3223"></path>
  <path
    d="M117.865 32.0612C118.123 32.0378 118.318 32.0222 118.435 32.0066C118.56 31.9988 118.731 31.991 118.958 31.991C119.442 31.991 120.191 32.03 121.221 32.1158C122.251 32.2017 123.118 32.2407 123.836 32.2407C125.865 32.2407 127.528 31.8583 128.808 31.0934C130.088 30.3285 131.001 29.3997 131.54 28.2991C132.078 27.1986 132.351 26.1371 132.351 25.099C132.351 23.2648 131.649 21.6492 130.252 20.2521C129.534 19.534 128.581 18.7925 127.387 18.012C126.193 17.2393 125.077 16.5056 124.039 15.811C123.001 15.1163 122.181 14.4138 121.58 13.688C120.979 12.9621 120.683 12.166 120.683 11.2996C120.683 10.4645 120.909 9.71517 121.354 9.05173C121.799 8.3883 122.423 7.86536 123.227 7.48291C124.031 7.10045 124.936 6.91313 125.951 6.91313C127.161 6.91313 128.581 7.27217 130.213 7.99024L131.321 12.0645H131.547L131.438 6.03896C131.274 6.06237 131.118 6.08579 130.97 6.1014C130.821 6.11701 130.626 6.13262 130.377 6.14043C130.127 6.14823 129.869 6.15604 129.58 6.16384C129.253 6.16384 128.659 6.12482 127.801 6.04676C126.942 5.96871 126.131 5.92969 125.366 5.92969C123.688 5.92969 122.267 6.26531 121.12 6.92874C119.965 7.59218 119.114 8.42732 118.567 9.41857C118.013 10.4176 117.74 11.4245 117.74 12.4313C117.74 13.3445 117.92 14.1797 118.271 14.9212C118.622 15.6705 119.161 16.412 119.871 17.1534C120.706 17.9886 122.049 19.0267 123.898 20.2755C125.748 21.5243 127.067 22.5468 127.856 23.3429C128.644 24.139 129.034 25.1225 129.034 26.2854C129.034 26.8474 128.909 27.425 128.667 28.0182C128.418 28.6113 128.066 29.1421 127.598 29.6104C127.137 30.0787 126.536 30.469 125.803 30.7734C125.069 31.0778 124.257 31.2339 123.383 31.2339C122.728 31.2495 121.947 31.1558 121.049 30.9685C120.152 30.7812 119.364 30.5314 118.7 30.227L117.358 25.8952H117.108L117.389 32.1002C117.451 32.1002 117.6 32.0846 117.865 32.0612Z"
    fill="#FFA200"></path>
  <path
    d="M117.365 25.8952L118.708 30.227C119.379 30.5314 120.16 30.7812 121.057 30.9685C121.955 31.1558 122.735 31.2417 123.391 31.2339C124.273 31.2339 125.077 31.0778 125.811 30.7734C126.544 30.469 127.145 30.0787 127.606 29.6104C128.066 29.1421 128.425 28.6113 128.675 28.0182C128.925 27.425 129.042 26.8474 129.042 26.2854C129.042 25.1225 128.652 24.139 127.863 23.3429C127.075 22.5468 125.756 21.5243 123.906 20.2755C122.056 19.0267 120.714 17.9886 119.879 17.1534C119.161 16.412 118.63 15.6705 118.279 14.9212C117.927 14.1719 117.748 13.3445 117.748 12.4313C117.748 11.4245 118.021 10.4176 118.575 9.41857C119.129 8.41952 119.98 7.59218 121.128 6.92874C122.283 6.26531 123.695 5.92969 125.374 5.92969C126.138 5.92969 126.95 5.96871 127.809 6.04676C128.667 6.12482 129.26 6.16384 129.588 6.16384C129.869 6.15604 130.135 6.14043 130.384 6.14043C130.634 6.13262 130.829 6.12482 130.978 6.1014C131.126 6.08579 131.282 6.06237 131.446 6.03896L131.555 12.0645H131.329L130.221 7.99024C128.589 7.27217 127.169 6.91313 125.959 6.91313C124.952 6.91313 124.039 7.10045 123.235 7.48291C122.431 7.86536 121.807 8.3883 121.362 9.05173C120.917 9.71517 120.69 10.4645 120.69 11.2996C120.69 12.166 120.987 12.9621 121.588 13.688C122.189 14.4138 123.009 15.1163 124.047 15.811C125.085 16.5056 126.201 17.2393 127.395 18.012C128.589 18.7847 129.541 19.534 130.26 20.2521C131.657 21.6492 132.359 23.2648 132.359 25.099C132.359 26.1293 132.086 27.1986 131.547 28.2991C131.009 29.3997 130.096 30.3285 128.816 31.0934C127.536 31.8583 125.881 32.2407 123.844 32.2407C123.126 32.2407 122.251 32.2017 121.229 32.1158C120.199 32.03 119.449 31.991 118.966 31.991C118.739 31.991 118.567 31.9988 118.443 32.0066C118.318 32.0222 118.13 32.0378 117.873 32.0612C117.615 32.0846 117.459 32.1002 117.412 32.1002L117.131 25.8952H117.365ZM125.982 6.30433H125.42C124.125 6.30433 122.938 6.5619 121.846 7.07704C120.753 7.59218 119.887 8.32586 119.254 9.27808C118.622 10.2303 118.302 11.3074 118.302 12.5016C118.302 13.9924 118.958 15.3895 120.261 16.6929C120.839 17.2471 121.377 17.7076 121.877 18.0822C122.376 18.4569 123.133 18.9876 124.14 19.6745C125.147 20.3613 125.959 20.9233 126.56 21.3682C127.169 21.8053 127.66 22.2268 128.051 22.6248C129.104 23.6785 129.635 24.8649 129.635 26.1683C129.635 27.0581 129.393 27.9245 128.901 28.7518C128.418 29.5792 127.707 30.2582 126.786 30.7812C125.865 31.3041 124.78 31.5695 123.532 31.5851V31.7802C124.968 31.8271 126.24 31.5773 127.364 31.0231C128.488 30.469 129.346 29.7431 129.94 28.8377C130.533 27.9323 130.829 26.9957 130.829 26.0357C130.829 25.2005 130.697 24.4434 130.423 23.7644C130.15 23.0853 129.659 22.3829 128.94 21.6648C128.527 21.2511 127.785 20.6814 126.724 19.9477C125.655 19.214 124.577 18.4725 123.485 17.731C122.392 16.9817 121.596 16.3729 121.089 15.889C119.855 14.6636 119.239 13.3211 119.239 11.8538C119.239 10.5581 119.801 9.35613 120.925 8.24C122.049 7.12387 123.734 6.53849 125.99 6.47605V6.30433H125.982Z"
    fill="#EA3223"></path>
  <path
    d="M17.7644 70.4702C16.8512 70.5795 15.7195 70.6263 14.3848 70.6263C12.0589 70.6263 10.1779 70.4078 8.74953 69.9707C8.65587 69.1824 8.59343 68.2457 8.5544 67.1608C8.51538 66.0759 8.49196 64.6944 8.46855 63.0319C8.40611 61.7285 8.45294 60.3938 8.60904 59.0279C9.88127 58.8874 11.2862 58.8172 12.8394 58.8172C14.0726 58.8172 15.2044 58.8796 16.219 58.9967L17.0464 62.1656H17.343V54.657H17.0464L16.2502 57.6542C14.8375 57.8103 13.4716 57.8805 12.1448 57.8805C11.6374 57.8805 10.4588 57.8259 8.60123 57.7244C8.50757 56.7722 8.46074 55.5312 8.46074 54.0092C8.46074 51.5662 8.57782 49.3886 8.81197 47.4919C10.2013 47.1719 12.0277 47.0158 14.2912 47.0158C15.54 47.0158 16.6561 47.0549 17.6552 47.1251L18.9274 51.4257H19.2084L18.7713 45.9465H0V46.126L4.37086 46.7427C4.50355 47.8588 4.59721 48.9749 4.66746 50.091C4.7377 51.2072 4.79234 52.2843 4.82356 53.3224C4.85478 54.3604 4.87819 55.1644 4.87819 55.7263V60.1674C4.87819 60.7919 4.86258 61.5177 4.83917 62.3451C4.81575 63.1724 4.77673 64.2027 4.71429 65.4281C4.65185 66.6535 4.58941 67.7618 4.51135 68.7531C4.4333 69.7365 4.34745 70.478 4.25379 70.9541L0.0390256 71.5707V71.7502H19.0211L19.4113 66.232H19.1616L17.7644 70.4702Z"
    fill="#FFA200"></path>
  <path
    d="M0 46.1182V45.9387H18.7713L19.2084 51.4179H18.9274L17.6552 47.1173C16.6561 47.047 15.5322 47.008 14.2912 47.008C12.0199 47.008 10.1935 47.1641 8.81197 47.4841C8.57782 49.3886 8.46074 51.5584 8.46074 54.0014C8.46074 55.5312 8.50757 56.7644 8.60123 57.7166C10.4589 57.8259 11.6374 57.8727 12.1448 57.8727C13.4716 57.8727 14.8375 57.7947 16.2502 57.6464L17.0464 54.6492H17.343V62.1577H17.0464L16.219 58.9889C15.1966 58.8718 14.0726 58.8094 12.8394 58.8094C11.2862 58.8094 9.88127 58.8796 8.60904 59.0201C8.45294 60.386 8.40611 61.7129 8.46855 63.0241C8.49196 64.6944 8.52318 66.0681 8.5544 67.153C8.59343 68.2379 8.65587 69.1745 8.74953 69.9629C10.1857 70.3999 12.0589 70.6185 14.3848 70.6185C15.7273 70.6185 16.8512 70.5639 17.7644 70.4624L19.1772 66.2164H19.4269L19.0367 71.7346H0.0546358V71.5551L4.2694 70.9385C4.36306 70.4546 4.44891 69.7209 4.52697 68.7375C4.60502 67.754 4.66746 66.6457 4.7299 65.4125C4.79234 64.1871 4.83136 63.1568 4.85478 62.3295C4.8782 61.5021 4.89381 60.7762 4.89381 60.1518V55.7263C4.89381 55.1644 4.8782 54.3604 4.83917 53.3224C4.80014 52.2843 4.75331 51.2072 4.68307 50.091C4.61282 48.9749 4.51136 47.8588 4.38647 46.7427L0 46.1182ZM5.35431 46.6334V71.0556H6.5719V46.6334H5.35431Z"
    fill="#EA3223"></path>
  <path
    d="M54.347 65.8496C54.0504 62.9695 53.8006 59.8552 53.5977 56.5068C53.3948 53.1663 53.2855 50.9496 53.2855 49.8725C53.2855 48.8422 53.3245 47.8041 53.3948 46.7739L58.0857 46.1182V45.9387H50.5459C49.8669 47.7105 48.8756 49.8257 47.5878 52.2843L43.0764 60.7606C41.5934 63.6017 40.5163 65.5764 39.8373 66.6847C39.0178 65.5842 37.9953 63.9217 36.7699 61.7129L31.8214 52.534C31.1892 51.3321 30.6429 50.294 30.198 49.3964C29.7531 48.5066 29.2145 47.3514 28.5745 45.9387H20.9958V46.1182L23.9929 46.7739C24.9686 47.5856 25.6242 48.3427 25.9676 49.0452C26.0144 50.0052 26.0379 50.7155 26.0379 51.176C26.0379 52.4794 25.9286 54.5946 25.7178 57.5137C25.5071 60.4328 25.2573 63.2739 24.9764 66.0369C24.6954 68.7999 24.469 70.4234 24.3051 70.9151L20.9567 71.5707V71.7502H29.6126V71.5707L26.2642 70.9151C26.2174 69.8614 26.194 69.0497 26.194 68.5033C26.194 67.715 26.233 66.6379 26.311 65.2642C26.3891 63.8905 26.4984 62.228 26.6467 60.2767C26.795 58.3254 26.9511 56.5146 27.115 54.8522C27.2789 53.1819 27.4038 52.1126 27.4818 51.6443C28.114 52.7292 28.9179 54.1731 29.8936 55.9761L35.6381 66.6223C36.005 67.2935 36.4811 68.2223 37.0821 69.4087C37.6831 70.5951 38.1046 71.4614 38.3543 72H38.6041C38.9709 71.0946 39.689 69.5882 40.7739 67.4886L47.619 54.6336C48.22 53.4941 48.7898 52.4872 49.3439 51.6052C49.5 52.1204 49.6639 53.1194 49.8356 54.6024C50.0152 56.0854 50.1635 57.6932 50.2883 59.4416C50.4132 61.1899 50.4991 62.7275 50.5615 64.0778C50.624 65.4203 50.6474 66.513 50.6474 67.3481C50.6474 68.8623 50.6005 70.0643 50.5069 70.9619L46.3155 71.5785V71.758H58.4057V71.5785L55.1665 70.9619C54.9168 70.4312 54.6436 68.7297 54.347 65.8496Z"
    fill="#FFA200"></path>
  <path
    d="M20.9958 45.9465H28.5667C29.1989 47.3593 29.7375 48.5066 30.1902 49.4042C30.6351 50.294 31.1736 51.3399 31.8136 52.5418L36.7621 61.7129C37.9875 63.9217 39.0021 65.5764 39.8295 66.6847C40.5085 65.5842 41.5934 63.6095 43.0686 60.7606L47.58 52.2843C48.8756 49.8257 49.8591 47.7183 50.5381 45.9387H58.0778V46.1182L53.387 46.7739C53.3167 47.8041 53.2777 48.8422 53.2777 49.8725C53.2777 50.9574 53.3792 53.1663 53.5899 56.5068C53.7928 59.8474 54.0426 62.9617 54.3392 65.8496C54.6358 68.7375 54.9012 70.4312 55.1509 70.9541L58.39 71.5707V71.7502H46.3155V71.5707L50.5069 70.9541C50.6005 70.0643 50.6474 68.8545 50.6474 67.3403C50.6474 66.5052 50.6162 65.4203 50.5615 64.07C50.4991 62.7275 50.4132 61.1821 50.2883 59.4338C50.1635 57.6854 50.0152 56.0776 49.8356 54.5946C49.6561 53.1116 49.4922 52.1126 49.3439 51.5974C48.7898 52.4794 48.2122 53.4863 47.619 54.6258L40.7661 67.473C39.689 69.5726 38.9631 71.079 38.5963 71.9844H38.3465C38.0968 71.4458 37.6753 70.5795 37.0743 69.3931C36.4733 68.2067 35.9972 67.2779 35.6303 66.6067L29.8936 55.9683C28.9179 54.1575 28.114 52.7136 27.4818 51.6365C27.3959 52.1048 27.2789 53.1741 27.115 54.8444C26.9511 56.5147 26.795 58.3254 26.6467 60.2689C26.4984 62.2202 26.3891 63.8827 26.311 65.2564C26.233 66.6301 26.194 67.715 26.194 68.4955C26.194 69.0497 26.2174 69.8536 26.2642 70.9073L29.6126 71.5629V71.7424H20.9567V71.5629L24.3051 70.9073C24.469 70.4156 24.6954 68.7843 24.9764 66.0291C25.2573 63.2661 25.5071 60.425 25.7178 57.5059C25.9286 54.5868 26.0379 52.4716 26.0379 51.1681C26.0379 50.7076 26.0144 49.9974 25.9676 49.0374C25.6242 48.3349 24.9686 47.5778 23.9929 46.7661L20.9958 46.1104V45.9465ZM25.3822 46.6334L38.1202 70.158L38.7368 68.956L26.6154 46.6334H25.3822ZM51.0532 47.7729L50.0308 49.8335L51.584 71.0478H52.8562L51.1235 47.7729H51.0532Z"
    fill="#EA3223"></path>
  <path
    d="M78.8316 48.0227C78.1136 47.3046 77.2082 46.7661 76.0999 46.407C74.9993 46.048 73.4617 45.8685 71.5026 45.8685H59.272L59.3111 46.0792L63.6819 46.6958C63.8224 47.7261 63.9395 49.17 64.0332 51.0198C64.1268 52.8697 64.1736 54.54 64.1736 56.0307V60.2611C64.1736 61.026 64.1502 62.1812 64.0956 63.7422C64.041 65.2954 63.9785 66.6301 63.9083 67.7306C63.838 68.8311 63.7366 69.877 63.6117 70.8682L59.3501 71.4848L59.2798 71.7346H72.4783L72.6734 71.5239L68.2713 70.8682C68.1543 70.2594 68.0684 69.5024 68.006 68.597C67.9435 67.6916 67.8889 66.6223 67.842 65.3813C67.7874 64.1402 67.764 63.3441 67.764 62.9929V54.5946C67.764 53.8453 67.8108 52.534 67.9045 50.6686C67.9981 48.8032 68.084 47.6324 68.1699 47.1641C68.9348 46.9768 69.8089 46.8831 70.7924 46.8831C72.8373 46.8831 74.3827 47.6246 75.4286 49.0998C76.4745 50.5828 76.9974 52.1594 76.9974 53.8375C76.9974 55.2814 76.654 56.4834 75.975 57.4435C75.2959 58.4035 74.3905 59.1059 73.2666 59.5586C72.1427 60.0113 70.9251 60.2377 69.6138 60.2377C69.1065 60.2377 68.7318 60.2299 68.4899 60.1987V60.3782C69.567 60.5889 70.7768 60.6982 72.1036 60.6982C73.7817 60.6982 75.2803 60.3391 76.5916 59.6289C77.9028 58.9186 78.9175 57.9742 79.6434 56.7878C80.3693 55.6092 80.7283 54.3214 80.7283 52.9399C80.7283 52.0111 80.5644 51.1135 80.2444 50.2315C79.8931 49.3574 79.4326 48.6237 78.8316 48.0227Z"
    fill="#FFA200"></path>
  <path
    d="M59.272 45.8685H71.5026C73.4617 45.8685 74.9993 46.048 76.0999 46.407C77.2004 46.7661 78.1136 47.3046 78.8316 48.0227C79.4326 48.6237 79.8931 49.3574 80.2131 50.2315C80.5332 51.1057 80.6971 52.0111 80.6971 52.9399C80.6971 54.3292 80.338 55.6092 79.6122 56.7878C78.8863 57.9664 77.8716 58.9108 76.5604 59.6289C75.2491 60.3391 73.7583 60.6982 72.0724 60.6982C70.7455 60.6982 69.5436 60.5889 68.4586 60.3782V60.1987C68.7084 60.2221 69.0831 60.2377 69.5826 60.2377C70.9016 60.2377 72.1192 60.0113 73.2354 59.5586C74.3593 59.1059 75.2569 58.4035 75.9438 57.4435C76.6228 56.4834 76.9662 55.2814 76.9662 53.8375C76.9662 52.1594 76.4433 50.5749 75.3974 49.0998C74.3515 47.6168 72.8061 46.8831 70.7612 46.8831C69.7777 46.8831 68.8957 46.9768 68.1386 47.1641C68.0528 47.6324 67.9669 48.8032 67.8733 50.6686C67.7796 52.534 67.7328 53.8453 67.7328 54.5946V63.0007C67.7328 63.3519 67.7562 64.148 67.8108 65.3891C67.8655 66.6301 67.9201 67.6994 67.9747 68.6048C68.0372 69.5102 68.123 70.2672 68.2401 70.876L72.6422 71.5317L72.4471 71.7424H59.272L59.3423 71.4927L63.6039 70.876C63.7366 69.8926 63.8302 68.8467 63.9005 67.7384C63.9707 66.6379 64.0331 65.3032 64.0878 63.75C64.1424 62.1968 64.1658 61.0338 64.1658 60.2689V56.0385C64.1658 54.5478 64.119 52.8775 64.0253 51.0276C63.9317 49.1778 63.8146 47.7339 63.6741 46.7036L59.3033 46.087L59.272 45.8685ZM64.6498 46.5397V71.0165H65.883V46.5397H64.6498ZM71.7134 46.2978H71.0812V46.4773C72.408 46.5475 73.571 46.93 74.5622 47.6168C75.5535 48.3037 76.3028 49.1934 76.8101 50.2862C77.3175 51.3789 77.5672 52.5496 77.5672 53.8141C77.5672 55.2502 77.2628 56.4366 76.654 57.3732C76.0452 58.3098 75.3115 58.9967 74.4686 59.4181C73.6256 59.8396 72.7827 60.0972 71.9475 60.1752V60.386H72.2675C72.9232 60.386 73.7661 60.2065 74.7808 59.8474C75.7955 59.4884 76.7243 58.8015 77.575 57.7791C78.4258 56.7566 78.8473 55.3439 78.8473 53.5331C78.8473 52.417 78.6209 51.3008 78.1604 50.1847C77.6999 49.0686 76.935 48.1476 75.8579 47.4061C74.773 46.6646 73.3915 46.2978 71.7134 46.2978Z"
    fill="#EA3223"></path>
  <path
    d="M82.0084 46.1183L86.3792 46.7349C86.7304 49.2482 86.91 52.5185 86.91 56.5537V59.5119C86.91 61.4944 86.8631 63.5237 86.7617 65.5999C86.6602 67.676 86.5119 69.4478 86.309 70.9152L82.0084 71.5708V71.7503H95.3317V71.5708L90.9608 70.9542C90.875 70.3922 90.7969 69.5415 90.7032 68.4175C90.6174 67.2936 90.5472 65.9121 90.4925 64.2886C90.4379 62.6652 90.4145 61.4866 90.4145 60.7763V56.8816C90.4145 55.7342 90.4379 54.501 90.4847 53.1897C90.5315 51.8785 90.5862 50.7624 90.6408 49.8414C90.7033 48.9203 90.7969 47.8901 90.9218 46.7505L95.3239 46.1339V45.9544H82.0006V46.1183H82.0084Z"
    fill="#FFA200"></path>
  <path
    d="M95.3317 71.7425H82.0084V71.563L86.309 70.9074C86.512 69.44 86.6602 67.6683 86.7617 65.5921C86.8632 63.516 86.91 61.4866 86.91 59.5041V56.546C86.91 52.5185 86.7305 49.2482 86.3793 46.7272L82.0084 46.1105V45.931H95.3317V46.1105L90.9296 46.7272C90.797 47.8667 90.7033 48.897 90.6487 49.818C90.5862 50.739 90.5394 51.8551 90.4926 53.1664C90.4457 54.4776 90.4223 55.7108 90.4223 56.8582V60.7529C90.4223 61.471 90.4457 62.6418 90.5004 64.2652C90.555 65.8887 90.6252 67.2702 90.7111 68.3941C90.797 69.5259 90.8828 70.3688 90.9687 70.9308L95.3395 71.5474V71.7425H95.3317ZM87.3861 46.6335V71.0557H88.6193V46.6335H87.3861Z"
    fill="#EA3223"></path>
  <path
    d="M112.589 50.4189C113.081 51.5038 113.33 52.5653 113.33 53.6268C113.33 55.9761 112.308 57.6776 110.263 58.7157L110.372 58.7859C111.574 58.4815 112.558 57.8259 113.338 56.8268C114.119 55.8278 114.509 54.6336 114.509 53.2521C114.509 52.175 114.298 51.1916 113.877 50.3174C113.455 49.4432 112.878 48.7095 112.159 48.1241C111.434 47.5388 110.63 47.0939 109.74 46.7817C108.85 46.4773 107.945 46.3212 107.047 46.3212H106.181V46.5007C107.789 46.5397 109.139 46.93 110.224 47.6715C111.301 48.4207 112.089 49.3417 112.589 50.4189Z"
    fill="#FFA200"></path>
  <path
    d="M115.984 67.3716L112.917 62.9695C112.261 62.0094 111.644 61.2758 111.067 60.784C110.489 60.2923 109.787 59.9645 108.952 59.8006L108.881 59.9411C109.537 60.3626 110.161 61.026 110.747 61.9314L114.571 67.4808C115.484 68.7843 116.304 69.7131 117.022 70.2751C117.74 70.837 118.583 71.118 119.559 71.1336V70.9463C118.638 70.6809 117.444 69.4867 115.984 67.3716Z"
    fill="#FFA200"></path>
  <path d="M102.614 46.6334H101.342V71.0556H102.614V46.6334Z" fill="#FFA200"></path>
  <path
    d="M118.856 68.3082C118.325 67.5823 117.631 66.5676 116.757 65.2798C115.89 63.9841 115.188 62.9695 114.657 62.2202C114.126 61.4709 113.658 60.8933 113.244 60.4875C112.714 59.9567 112.05 59.5352 111.254 59.2152V59.145C112.097 59.0513 112.932 58.7469 113.744 58.2318C114.563 57.7166 115.219 57.022 115.726 56.14C116.234 55.2658 116.483 54.2668 116.483 53.1507C116.483 52.3389 116.234 51.3711 115.726 50.255C115.219 49.131 114.314 48.132 113.002 47.2578C111.691 46.3836 109.943 45.9465 107.742 45.9465H96.1668V46.126L100.397 46.7427C100.538 47.7729 100.655 49.1935 100.748 50.9964C100.842 52.7994 100.889 54.3995 100.889 55.7966V61.2446C100.889 62.228 100.834 63.7968 100.733 65.951C100.623 68.0974 100.483 69.7677 100.311 70.9541L96.1668 71.5707V71.7502H109.272V71.5707L104.885 70.9541C104.589 68.6984 104.448 66.8798 104.448 65.5061V62.2436C104.448 61.4709 104.487 60.7606 104.557 60.1284C104.971 60.0426 105.541 60.0035 106.282 60.0035C107.094 60.0035 107.703 60.0894 108.124 60.2611C108.538 60.4328 108.998 60.7684 109.506 61.2758C109.849 61.6192 110.31 62.189 110.887 63.0007C111.465 63.8124 112.183 64.8427 113.034 66.0837C113.884 67.3325 114.509 68.2223 114.899 68.7687C115.289 69.315 115.687 69.7912 116.085 70.1892C117.092 71.2195 118.458 71.7424 120.175 71.7424H123.243V71.5629C122.283 71.5629 121.307 71.0712 120.316 70.0799C119.879 69.6272 119.387 69.0341 118.856 68.3082ZM106.173 46.329H107.039C107.945 46.329 108.842 46.4851 109.732 46.7895C110.622 47.0939 111.434 47.5388 112.152 48.132C112.878 48.7173 113.447 49.451 113.869 50.3252C114.29 51.1994 114.501 52.175 114.501 53.2599C114.501 54.6492 114.111 55.8356 113.33 56.8347C112.55 57.8337 111.558 58.4815 110.364 58.7937L110.255 58.7235C112.3 57.6776 113.322 55.9839 113.322 53.6346C113.322 52.5809 113.073 51.5116 112.581 50.4267C112.089 49.3496 111.301 48.4364 110.208 47.6871C109.123 46.9378 107.773 46.5475 106.165 46.5163V46.329H106.173ZM102.614 71.0556H101.342V46.6334H102.614V71.0556ZM106.509 59.0357C105.642 59.0357 104.979 58.9967 104.518 58.9264C104.448 58.0445 104.409 57.0922 104.409 56.0698V53.1819C104.409 52.3389 104.456 51.2774 104.542 50.013C104.628 48.7408 104.729 47.7729 104.83 47.0861C105.221 46.9924 105.751 46.9456 106.431 46.9456C107.149 46.9456 107.874 47.1017 108.624 47.4139C109.373 47.7261 110.044 48.1632 110.653 48.733C111.262 49.3027 111.754 49.9974 112.136 50.8247C112.518 51.6443 112.706 52.5497 112.706 53.5175C112.706 54.5009 112.511 55.4141 112.113 56.2415C111.722 57.0688 111.059 57.7401 110.138 58.263C109.225 58.7781 108.007 59.0357 106.509 59.0357ZM119.567 71.1258C118.591 71.118 117.748 70.8292 117.03 70.2673C116.312 69.7131 115.5 68.7765 114.579 67.473L110.755 61.9236C110.169 61.0182 109.545 60.3548 108.889 59.9333L108.959 59.7928C109.795 59.9567 110.497 60.2845 111.075 60.7762C111.652 61.268 112.269 62.0016 112.924 62.9617L115.992 67.3638C117.451 69.4789 118.638 70.6731 119.567 70.9385V71.1258Z"
    fill="#EA3223"></path>
  <path
    d="M142.99 66.2242L141.577 70.4702C140.664 70.5795 139.532 70.6263 138.197 70.6263C135.871 70.6263 133.99 70.4078 132.562 69.9707C132.468 69.1824 132.406 68.2457 132.367 67.1608C132.328 66.0759 132.304 64.6944 132.281 63.0319C132.219 61.7285 132.265 60.3938 132.422 59.0279C133.694 58.8874 135.099 58.8172 136.652 58.8172C137.885 58.8172 139.017 58.8796 140.031 58.9967L140.859 62.1656H141.155V54.657H140.859L140.063 57.6542C138.65 57.8103 137.284 57.8805 135.957 57.8805C135.45 57.8805 134.271 57.8259 132.414 57.7244C132.32 56.7722 132.273 55.5312 132.273 54.0092C132.273 51.5662 132.39 49.3886 132.624 47.4919C134.014 47.1719 135.84 47.0158 138.104 47.0158C139.352 47.0158 140.469 47.0549 141.468 47.1251L142.74 51.4257H143.021L142.584 45.9465H123.812V46.126L128.183 46.7427C128.316 47.8588 128.41 48.9749 128.48 50.091C128.55 51.2072 128.605 52.2843 128.636 53.3224C128.675 54.3604 128.691 55.1644 128.691 55.7263V60.1674C128.691 60.7919 128.675 61.5177 128.652 62.3451C128.628 63.1724 128.589 64.2027 128.527 65.4281C128.464 66.6535 128.402 67.7618 128.324 68.7531C128.246 69.7365 128.16 70.478 128.066 70.9541L123.852 71.5707V71.7502H142.834L143.224 66.232H142.99V66.2242Z"
    fill="#FFA200"></path>
  <path
    d="M123.813 46.1182V45.9387H142.584L143.021 51.4179H142.74L141.468 47.1173C140.469 47.047 139.345 47.008 138.104 47.008C135.832 47.008 134.006 47.1641 132.625 47.4841C132.39 49.3886 132.273 51.5584 132.273 54.0014C132.273 55.5312 132.32 56.7644 132.414 57.7166C134.271 57.8259 135.45 57.8727 135.957 57.8727C137.284 57.8727 138.65 57.7947 140.063 57.6464L140.859 54.6492H141.155V62.1577H140.859L140.032 58.9889C139.009 58.8718 137.885 58.8094 136.652 58.8094C135.099 58.8094 133.694 58.8796 132.422 59.0201C132.265 60.386 132.219 61.7129 132.281 63.0241C132.305 64.6944 132.336 66.0681 132.367 67.153C132.406 68.2379 132.468 69.1745 132.562 69.9629C133.998 70.3999 135.871 70.6185 138.197 70.6185C139.54 70.6185 140.664 70.5639 141.577 70.4624L142.99 66.2164H143.239L142.849 71.7346H123.867V71.5551L128.082 70.9385C128.176 70.4546 128.261 69.7209 128.34 68.7375C128.418 67.754 128.48 66.6457 128.542 65.4125C128.605 64.1871 128.644 63.1568 128.667 62.3295C128.691 61.5021 128.706 60.7762 128.706 60.1518V55.7263C128.706 55.1644 128.691 54.3604 128.652 53.3224C128.613 52.2843 128.566 51.2072 128.496 50.091C128.425 48.9749 128.324 47.8588 128.199 46.7427L123.813 46.1182ZM129.175 46.6334V71.0556H130.392V46.6334H129.175Z"
    fill="#EA3223"></path>
  <path
    d="M68.0997 31.1168C68.0997 31.1168 67.5143 27.9089 64.0176 25.864C64.0176 25.864 63.2917 27.4718 64.4547 29.2202C64.4547 29.2202 61.9726 26.8864 59.4984 29.2202C59.4984 29.2202 61.3248 31.1948 66.1015 30.867L68.0997 31.1168Z"
    fill="#EA3223"></path>
  <path
    d="M63.2838 27.9089C63.2838 27.9089 64.158 25.1381 60.513 22.6561C60.513 22.6561 60.0759 23.3819 60.513 25.4269C60.513 25.4269 59.6388 24.1156 55.2601 23.9673C55.2601 23.9673 57.4222 29.2202 63.1199 27.9089H63.2838Z"
    fill="#EA3223"></path>
  <path
    d="M57.5939 20.7595C57.5939 20.7595 57.1568 19.0111 58.6164 17.4033C58.7725 17.2081 60.5676 18.2072 59.7871 24.5527C59.7871 24.5527 53.9489 24.2639 53.5118 18.2774C53.5118 18.2852 54.6826 17.9886 57.5939 20.7595Z"
    fill="#EA3223"></path>
  <path
    d="M56.8134 18.9955C56.8134 18.9955 52.5986 18.6676 53.863 11.7445C53.863 11.7445 55.666 12.3299 56.4465 15.8266C56.4465 15.8266 56.8368 13.0011 59.1003 12.1504C59.1003 12.1426 59.6778 15.9983 56.8134 18.9955Z"
    fill="#EA3223"></path>
  <path
    d="M56.1734 13.368C56.1734 13.368 52.9109 9.24691 56.5949 5.91412C56.5949 5.91412 57.2193 7.06147 57.3051 9.5357C57.3051 9.5357 58.3979 7.31124 60.1384 7.1005C60.2477 7.51417 59.6389 11.8382 56.1734 13.368Z"
    fill="#EA3223"></path>
  <path
    d="M58.3276 6.75704C58.3276 6.75704 56.7198 4.27502 60.3726 1.36371C60.3726 1.36371 60.7706 3.36182 59.6935 4.91503C59.6935 4.91503 60.6613 3.84573 63.8692 4.13452C63.8692 4.13452 62.558 6.90534 58.3276 6.75704Z"
    fill="#EA3223"></path>
  <path
    d="M61.4419 3.08085C61.4419 3.08085 62.1911 -0.595354 67.7562 0.0836909C67.7562 0.0836909 65.5552 3.95503 61.4419 3.08085Z"
    fill="#EA3223"></path>
  <path
    d="M76.0295 34.036C76.0295 34.036 66.921 30.3598 65.0712 29.2514C64.5092 28.9158 63.9785 28.5646 63.4867 28.1977C59.6388 25.3099 57.0865 20.8609 56.8134 15.811C56.509 15.8501 56.2124 15.8579 55.9158 15.8266C55.9704 21.0717 58.4915 25.7469 62.4018 28.7753C66.1249 31.9286 74.8744 34.996 74.8744 34.996L76.0452 34.2701L76.0295 34.036Z"
    fill="#EA3223"></path>
  <path
    d="M71.3624 31.991C69.1301 31.0544 66.9213 30.0631 65.0715 28.9548C64.5095 28.6192 63.9788 28.268 63.4871 27.9011C59.4128 24.8493 56.7903 20.0414 56.7903 14.6402C56.7903 9.74643 58.9367 5.35215 62.3631 2.30035C58.4371 5.35996 55.9161 10.0821 55.9161 15.3739C55.9161 20.6892 58.4528 25.4269 62.4099 28.4865C66.133 31.6398 74.8825 34.7072 74.8825 34.7072L76.0533 33.9813C74.5625 33.3101 72.9547 32.6622 71.3624 31.991Z"
    fill="#FFA200"></path>
  <path
    d="M72.8374 31.2651C72.8374 31.2651 73.4228 28.0572 76.9195 26.0123C76.9195 26.0123 77.6453 27.6201 76.4824 29.3685C76.4824 29.3685 78.9644 27.0347 81.4386 29.3685C81.4386 29.3685 79.6122 31.3432 74.8355 31.0153L72.8374 31.2651Z"
    fill="#EA3223"></path>
  <path
    d="M77.6532 28.0572C77.6532 28.0572 76.779 25.2864 80.424 22.8044C80.424 22.8044 80.8611 23.5303 80.424 25.5752C80.424 25.5752 81.2981 24.2639 85.6768 24.1156C85.6768 24.1156 83.5148 29.3685 77.8171 28.0572H77.6532Z"
    fill="#EA3223"></path>
  <path
    d="M83.3431 20.9078C83.3431 20.9078 83.7802 19.1594 82.3206 17.5516C82.1645 17.3564 80.3693 18.3555 81.1498 24.7011C81.1498 24.7011 86.9881 24.4123 87.4252 18.4257C87.4252 18.4257 86.2622 18.137 83.3431 20.9078Z"
    fill="#EA3223"></path>
  <path
    d="M84.1236 19.136C84.1236 19.136 88.3384 18.8081 87.0739 11.885C87.0739 11.885 85.2709 12.4704 84.4904 15.9671C84.4904 15.9671 84.1002 13.1416 81.8367 12.2909C81.8445 12.2909 81.2591 16.1388 84.1236 19.136Z"
    fill="#EA3223"></path>
  <path
    d="M84.7637 13.5163C84.7637 13.5163 88.0262 9.39522 84.3422 6.06244C84.3422 6.06244 83.7178 7.20979 83.6319 9.68401C83.6319 9.68401 82.5392 7.45955 80.7987 7.24882C80.6972 7.66249 81.2982 11.9865 84.7637 13.5163Z"
    fill="#EA3223"></path>
  <path
    d="M82.6172 6.90536C82.6172 6.90536 84.2251 4.42333 80.5723 1.51202C80.5723 1.51202 80.1742 3.51013 81.2513 5.06335C81.2513 5.06335 80.2835 3.99405 77.0756 4.28284C77.0678 4.27503 78.3869 7.05365 82.6172 6.90536Z"
    fill="#EA3223"></path>
  <path
    d="M79.5029 3.22136C79.5029 3.22136 78.7537 -0.454851 73.1886 0.224194C73.1808 0.224194 75.3818 4.10333 79.5029 3.22136Z"
    fill="#EA3223"></path>
  <path
    d="M64.9076 34.1765C64.9076 34.1765 74.0162 30.5003 75.866 29.3919C76.4279 29.0563 76.9587 28.7051 77.4504 28.3383C81.2983 25.4504 83.8506 21.0014 84.1238 15.9515C84.4282 15.9906 84.7248 15.9984 85.0214 15.9671C84.9667 21.2122 82.4457 25.8874 78.5353 28.9158C74.8123 32.0691 66.0627 35.1365 66.0627 35.1365L64.892 34.4106L64.9076 34.1765Z"
    fill="#EA3223"></path>
  <path
    d="M69.5749 32.1393C71.8072 31.2027 74.016 30.2115 75.8658 29.1031C76.4278 28.7675 76.9585 28.4163 77.4502 28.0494C81.5245 24.9976 84.147 20.1897 84.147 14.7886C84.147 9.89475 82.0006 5.50047 78.5742 2.44867C82.5002 5.50827 85.0212 10.2304 85.0212 15.5222C85.0212 20.8375 82.4845 25.5752 78.5274 28.6348C74.8043 31.7881 66.0548 34.8555 66.0548 34.8555L64.884 34.1296C66.3748 33.4584 67.9827 32.8106 69.5749 32.1393Z"
    fill="#FFA200"></path>
</svg>